<mxfile host="app.diagrams.net" modified="2024-02-08T08:49:46.727Z" agent="Mozilla/5.0 (Windows NT 10.0; Win64; x64) AppleWebKit/537.36 (KHTML, like Gecko) Chrome/121.0.0.0 Safari/537.36" etag="QuXRRTVxbnD-JqZvLu9g" version="23.1.2" type="device">
  <diagram name="Pagina-1" id="ogv9KTp2c16fwc-uRzqG">
    <mxGraphModel dx="1434" dy="772" grid="1" gridSize="10" guides="1" tooltips="1" connect="1" arrows="1" fold="1" page="1" pageScale="1" pageWidth="827" pageHeight="1169" math="0" shadow="0">
      <root>
        <mxCell id="0" />
        <mxCell id="1" parent="0" />
        <mxCell id="DGYbSYAtWML-1K_2qEfj-10" style="edgeStyle=orthogonalEdgeStyle;rounded=0;orthogonalLoop=1;jettySize=auto;html=1;" edge="1" parent="1" source="DGYbSYAtWML-1K_2qEfj-6" target="DGYbSYAtWML-1K_2qEfj-11">
          <mxGeometry relative="1" as="geometry" />
        </mxCell>
        <mxCell id="DGYbSYAtWML-1K_2qEfj-6" value="Start" style="rounded=1;whiteSpace=wrap;html=1;fillColor=#e1d5e7;strokeColor=#9673a6;" vertex="1" parent="1">
          <mxGeometry x="350" y="80" width="120" height="60" as="geometry" />
        </mxCell>
        <mxCell id="DGYbSYAtWML-1K_2qEfj-7" value="Einde" style="rounded=1;whiteSpace=wrap;html=1;fillColor=#e1d5e7;strokeColor=#9673a6;" vertex="1" parent="1">
          <mxGeometry x="350" y="380" width="120" height="60" as="geometry" />
        </mxCell>
        <mxCell id="DGYbSYAtWML-1K_2qEfj-14" style="edgeStyle=orthogonalEdgeStyle;rounded=0;orthogonalLoop=1;jettySize=auto;html=1;exitX=0.5;exitY=1;exitDx=0;exitDy=0;entryX=0.5;entryY=0;entryDx=0;entryDy=0;" edge="1" parent="1" source="DGYbSYAtWML-1K_2qEfj-11" target="DGYbSYAtWML-1K_2qEfj-13">
          <mxGeometry relative="1" as="geometry" />
        </mxCell>
        <mxCell id="DGYbSYAtWML-1K_2qEfj-11" value="Haal kaarten uit de doos" style="rounded=0;whiteSpace=wrap;html=1;fillColor=#dae8fc;strokeColor=#6c8ebf;" vertex="1" parent="1">
          <mxGeometry x="350" y="180" width="120" height="60" as="geometry" />
        </mxCell>
        <mxCell id="DGYbSYAtWML-1K_2qEfj-15" style="edgeStyle=orthogonalEdgeStyle;rounded=0;orthogonalLoop=1;jettySize=auto;html=1;" edge="1" parent="1" source="DGYbSYAtWML-1K_2qEfj-13">
          <mxGeometry relative="1" as="geometry">
            <mxPoint x="410" y="380" as="targetPoint" />
          </mxGeometry>
        </mxCell>
        <mxCell id="DGYbSYAtWML-1K_2qEfj-13" value="De kaarten schudden" style="rounded=0;whiteSpace=wrap;html=1;fillColor=#dae8fc;strokeColor=#6c8ebf;" vertex="1" parent="1">
          <mxGeometry x="350" y="280" width="120" height="60" as="geometry" />
        </mxCell>
      </root>
    </mxGraphModel>
  </diagram>
</mxfile>
